<svg width="2000px" height="1094px"
 viewBox="0.00 0.00 946.71 517.89" xmlns="http://www.w3.org/2000/svg" xmlns:xlink="http://www.w3.org/1999/xlink">
<g id="graph0" class="graph" transform="scale(1.0 1.0) rotate(0) translate(4 513.89)">
<title>ContextMapGraph</title>
<polygon fill="white" stroke="transparent" points="-4,4 -4,-513.89 942.71,-513.89 942.71,4 -4,4"/>
<!-- CatalogProductosContext -->
<g id="node1" class="node">
<title>CatalogProductosContext</title>
<polygon fill="none" stroke="black" stroke-width="2" points="126.36,-505.45 115.7,-504.39 105.29,-503.22 95.17,-501.95 85.4,-500.59 76,-499.13 67.01,-497.59 58.48,-495.96 50.43,-494.26 42.9,-492.49 35.92,-490.66 29.5,-488.76 23.68,-486.81 18.46,-484.81 13.88,-482.77 9.93,-480.69 6.63,-478.58 3.99,-476.44 2.01,-474.29 0.68,-472.11 0,-469.93 -0.03,-467.74 0.58,-465.55 1.81,-463.37 3.64,-461.2 6.06,-459.04 9.05,-456.9 12.59,-454.79 16.64,-452.71 21.19,-450.66 26.21,-448.66 31.66,-446.69 37.52,-444.77 43.75,-442.91 50.34,-441.1 57.23,-439.35 64.41,-437.66 71.84,-436.04 79.49,-434.49 87.33,-433.01 95.34,-431.62 103.48,-430.3 111.72,-429.07 120.05,-427.92 128.43,-426.87 136.85,-425.91 145.28,-425.05 153.7,-424.28 162.1,-423.62 170.45,-423.06 178.75,-422.6 186.97,-422.26 195.11,-422.02 203.15,-421.89 211.09,-421.88 218.92,-421.97 226.63,-422.19 234.2,-422.51 241.65,-422.96 248.96,-423.51 256.12,-424.18 263.14,-424.97 270,-425.87 276.71,-426.88 283.26,-427.99 289.65,-429.22 295.86,-430.55 301.9,-431.98 307.76,-433.52 313.42,-435.15 318.9,-436.87 324.16,-438.67 329.21,-440.56 334.03,-442.53 338.62,-444.58 342.95,-446.68 347.03,-448.85 350.82,-451.08 354.32,-453.35 357.51,-455.67 360.38,-458.02 362.9,-460.4 365.06,-462.8 366.85,-465.21 368.25,-467.63 369.23,-470.04 369.78,-472.45 369.89,-474.84 369.54,-477.2 368.72,-479.53 367.41,-481.82 365.61,-484.07 363.29,-486.25 360.46,-488.38 357.11,-490.44 353.23,-492.42 348.82,-494.31 343.88,-496.13 338.42,-497.84 332.44,-499.46 325.95,-500.97 318.96,-502.38 311.49,-503.67 303.55,-504.84 295.17,-505.89 286.36,-506.82 277.16,-507.63 267.59,-508.31 257.67,-508.86 247.46,-509.27 236.97,-509.56 226.26,-509.72 215.35,-509.75 204.29,-509.64 193.12,-509.41 181.89,-509.05 170.64,-508.57 159.42,-507.97 148.26,-507.24 137.23,-506.4 126.36,-505.45"/>
<text text-anchor="middle" x="194.03" y="-461.23" font-family="sans-serif" font-size="16.00">CatalogProductosContext</text>
</g>
<!-- GestionOrdenesContext -->
<g id="node2" class="node">
<title>GestionOrdenesContext</title>
<polygon fill="none" stroke="black" stroke-width="2" points="227.92,-280.02 238.7,-280.56 249.32,-281.21 259.73,-281.98 269.9,-282.86 279.78,-283.84 289.34,-284.93 298.53,-286.12 307.32,-287.41 315.68,-288.8 323.58,-290.27 330.98,-291.83 337.87,-293.47 344.23,-295.19 350.02,-296.98 355.24,-298.84 359.88,-300.76 363.92,-302.74 367.36,-304.77 370.2,-306.85 372.43,-308.97 374.06,-311.12 375.1,-313.3 375.54,-315.51 375.41,-317.74 374.72,-319.98 373.47,-322.22 371.7,-324.47 369.42,-326.71 366.65,-328.94 363.42,-331.16 359.74,-333.35 355.65,-335.52 351.17,-337.66 346.32,-339.75 341.13,-341.81 335.63,-343.81 329.85,-345.76 323.8,-347.65 317.53,-349.48 311.04,-351.23 304.37,-352.92 297.54,-354.52 290.56,-356.05 283.47,-357.48 276.28,-358.83 269,-360.08 261.66,-361.24 254.27,-362.29 246.85,-363.24 239.4,-364.09 231.94,-364.82 224.48,-365.44 217.03,-365.95 209.59,-366.34 202.18,-366.62 194.79,-366.78 187.45,-366.82 180.14,-366.74 172.88,-366.54 165.67,-366.22 158.51,-365.78 151.41,-365.22 144.38,-364.55 137.42,-363.76 130.53,-362.86 123.73,-361.85 117.02,-360.72 110.4,-359.49 103.89,-358.16 97.5,-356.73 91.24,-355.2 85.12,-353.58 79.16,-351.87 73.36,-350.08 67.75,-348.21 62.34,-346.26 57.16,-344.25 52.21,-342.18 47.52,-340.05 43.11,-337.88 39.01,-335.66 35.22,-333.4 31.78,-331.11 28.7,-328.79 26.01,-326.46 23.73,-324.12 21.88,-321.77 20.48,-319.43 19.55,-317.09 19.1,-314.78 19.15,-312.48 19.72,-310.22 20.82,-307.99 22.46,-305.81 24.65,-303.67 27.4,-301.59 30.71,-299.57 34.57,-297.62 39,-295.75 43.98,-293.95 49.51,-292.23 55.57,-290.6 62.15,-289.07 69.25,-287.63 76.83,-286.3 84.87,-285.06 93.36,-283.94 102.25,-282.93 111.53,-282.03 121.15,-281.25 131.09,-280.58 141.3,-280.03 151.75,-279.61 162.4,-279.3 173.19,-279.12 184.1,-279.06 195.07,-279.12 206.06,-279.3 217.03,-279.6 227.92,-280.02"/>
<text text-anchor="middle" x="194.03" y="-319.24" font-family="sans-serif" font-size="16.00">GestionOrdenesContext</text>
</g>
<!-- CatalogProductosContext&#45;&gt;GestionOrdenesContext -->
<g id="edge1" class="edge">
<title>CatalogProductosContext&#45;&gt;GestionOrdenesContext</title>
<path fill="none" stroke="black" stroke-width="2" d="M194.03,-422.03C194.03,-404.63 194.03,-384.48 194.03,-366.98"/>
<text text-anchor="middle" x="269.53" y="-392.57" font-family="sans-serif" font-size="12.00"> &#160;&#160;&#160;&#160;&#160;&#160;&#160;&#160;&#160;&#160;&#160;&#160;&#160;&#160;&#160;&#160;&#160;&#160;&#160;&#160;&#160;&#160;&#160;&#160;&#160;&#160;&#160;&#160;&#160;&#160;&#160;&#160;&#160;&#160;&#160;&#160;&#160;&#160;&#160;</text>
<polygon fill="white" stroke="transparent" points="187.03,-357.98 187.03,-374.98 201.03,-374.98 201.03,-357.98 187.03,-357.98"/>
<text text-anchor="start" x="189.03" y="-363.38" font-family="sans-serif" font-size="12.00">D</text>
<polygon fill="white" stroke="transparent" points="170.03,-412.03 170.03,-431.03 186.03,-431.03 186.03,-412.03 170.03,-412.03"/>
<polyline fill="none" stroke="black" points="186.03,-412.03 186.03,-431.03 "/>
<text text-anchor="start" x="173.03" y="-418.43" font-family="sans-serif" font-size="12.00">U</text>
<polygon fill="white" stroke="transparent" points="186.03,-412.03 186.03,-431.03 219.03,-431.03 219.03,-412.03 186.03,-412.03"/>
<polygon fill="none" stroke="black" points="186.03,-412.03 186.03,-431.03 219.03,-431.03 219.03,-412.03 186.03,-412.03"/>
<text text-anchor="start" x="189.03" y="-418.43" font-family="sans-serif" font-size="12.00">OHS</text>
</g>
<!-- GestionPagosContext -->
<g id="node3" class="node">
<title>GestionPagosContext</title>
<polygon fill="none" stroke="black" stroke-width="2" points="155.32,-224.42 145.6,-223.73 136.05,-222.93 126.71,-222.02 117.61,-221 108.79,-219.88 100.29,-218.66 92.14,-217.34 84.37,-215.92 77.01,-214.42 70.09,-212.83 63.63,-211.17 57.66,-209.43 52.19,-207.62 47.24,-205.74 42.82,-203.81 38.95,-201.82 35.63,-199.78 32.87,-197.7 30.66,-195.57 29.02,-193.42 27.93,-191.24 27.38,-189.04 27.38,-186.82 27.91,-184.59 28.95,-182.35 30.49,-180.12 32.51,-177.89 35,-175.68 37.92,-173.48 41.27,-171.3 45.02,-169.15 49.14,-167.03 53.62,-164.96 58.41,-162.92 63.51,-160.94 68.88,-159 74.5,-157.13 80.35,-155.32 86.4,-153.57 92.63,-151.9 99.01,-150.3 105.52,-148.79 112.15,-147.36 118.87,-146.01 125.66,-144.76 132.52,-143.61 139.41,-142.55 146.33,-141.59 153.26,-140.74 160.2,-140 167.13,-139.37 174.03,-138.85 180.91,-138.44 187.75,-138.15 194.55,-137.97 201.3,-137.92 208,-137.98 214.64,-138.16 221.22,-138.46 227.72,-138.88 234.16,-139.41 240.52,-140.07 246.8,-140.84 252.99,-141.73 259.1,-142.73 265.11,-143.84 271.02,-145.05 276.81,-146.38 282.5,-147.8 288.05,-149.33 293.48,-150.95 298.75,-152.65 303.87,-154.45 308.82,-156.32 313.59,-158.28 318.16,-160.3 322.51,-162.38 326.64,-164.53 330.52,-166.72 334.14,-168.97 337.47,-171.25 340.5,-173.57 343.22,-175.91 345.6,-178.27 347.62,-180.65 349.27,-183.03 350.53,-185.4 351.38,-187.77 351.8,-190.12 351.79,-192.45 351.32,-194.75 350.39,-197.01 348.98,-199.23 347.09,-201.4 344.7,-203.51 341.82,-205.56 338.44,-207.53 334.57,-209.43 330.2,-211.26 325.33,-212.99 319.99,-214.63 314.17,-216.18 307.89,-217.63 301.17,-218.97 294.03,-220.21 286.48,-221.33 278.55,-222.34 270.27,-223.23 261.65,-224.01 252.75,-224.66 243.58,-225.19 234.18,-225.6 224.59,-225.88 214.84,-226.04 204.98,-226.08 195.04,-225.99 185.06,-225.78 175.09,-225.44 165.16,-224.99 155.32,-224.42"/>
<text text-anchor="middle" x="194.03" y="-177.96" font-family="sans-serif" font-size="16.00">GestionPagosContext</text>
</g>
<!-- GestionOrdenesContext&#45;&gt;GestionPagosContext -->
<g id="edge2" class="edge">
<title>GestionOrdenesContext&#45;&gt;GestionPagosContext</title>
<path fill="none" stroke="black" stroke-width="2" d="M194.03,-278.74C194.03,-261.97 194.03,-242.81 194.03,-226.04"/>
<text text-anchor="middle" x="228.53" y="-247.32" font-family="sans-serif" font-size="12.00">Partnership</text>
</g>
<!-- GestionClientesContext -->
<g id="node4" class="node">
<title>GestionClientesContext</title>
<polygon fill="none" stroke="black" stroke-width="2" points="630.23,-138.26 641.02,-138.55 651.69,-138.96 662.2,-139.48 672.5,-140.12 682.56,-140.88 692.33,-141.74 701.77,-142.72 710.85,-143.8 719.54,-144.98 727.8,-146.27 735.61,-147.65 742.93,-149.12 749.75,-150.69 756.05,-152.33 761.81,-154.06 767,-155.86 771.64,-157.74 775.69,-159.68 779.17,-161.67 782.07,-163.73 784.38,-165.83 786.12,-167.97 787.28,-170.16 787.89,-172.37 787.94,-174.61 787.46,-176.87 786.45,-179.14 784.95,-181.42 782.95,-183.7 780.5,-185.97 777.6,-188.24 774.29,-190.48 770.57,-192.7 766.49,-194.9 762.06,-197.05 757.3,-199.17 752.25,-201.24 746.92,-203.25 741.34,-205.21 735.54,-207.1 729.52,-208.92 723.32,-210.67 716.96,-212.35 710.45,-213.94 703.81,-215.44 697.06,-216.85 690.21,-218.16 683.28,-219.37 676.28,-220.49 669.22,-221.49 662.12,-222.39 654.98,-223.18 647.81,-223.85 640.61,-224.41 633.41,-224.86 626.19,-225.18 618.96,-225.39 611.74,-225.47 604.53,-225.44 597.32,-225.29 590.13,-225.01 582.96,-224.62 575.81,-224.11 568.7,-223.49 561.62,-222.75 554.59,-221.9 547.61,-220.93 540.69,-219.86 533.84,-218.69 527.07,-217.41 520.41,-216.03 513.85,-214.56 507.41,-213 501.11,-211.35 494.97,-209.62 489.01,-207.82 483.24,-205.94 477.68,-203.99 472.37,-201.99 467.31,-199.92 462.53,-197.81 458.06,-195.65 453.92,-193.46 450.13,-191.23 446.71,-188.97 443.69,-186.7 441.1,-184.41 438.94,-182.11 437.26,-179.82 436.05,-177.53 435.35,-175.25 435.16,-172.99 435.51,-170.75 436.41,-168.54 437.87,-166.37 439.88,-164.24 442.48,-162.16 445.64,-160.14 449.38,-158.17 453.69,-156.27 458.57,-154.44 464,-152.69 469.98,-151.02 476.49,-149.43 483.52,-147.93 491.03,-146.52 499.02,-145.21 507.44,-144.01 516.28,-142.9 525.5,-141.91 535.07,-141.02 544.94,-140.24 555.09,-139.58 565.47,-139.04 576.05,-138.61 586.76,-138.3 597.59,-138.11 608.47,-138.04 619.36,-138.09 630.23,-138.26"/>
<text text-anchor="middle" x="611.03" y="-177.96" font-family="sans-serif" font-size="16.00">GestionClientesContext</text>
</g>
<!-- GestionOrdenesContext&#45;&gt;GestionClientesContext -->
<g id="edge3" class="edge">
<title>GestionOrdenesContext&#45;&gt;GestionClientesContext</title>
<path fill="none" stroke="black" stroke-width="2" d="M300.87,-286.36C366.87,-264.31 450.86,-236.26 514.79,-214.91"/>
<text text-anchor="middle" x="462.53" y="-247.32" font-family="sans-serif" font-size="12.00">Partnership</text>
</g>
<!-- GestionEnviosContext -->
<g id="node5" class="node">
<title>GestionEnviosContext</title>
<polygon fill="none" stroke="black" stroke-width="2" points="656.08,-2.4 665.97,-3.17 675.67,-4.06 685.15,-5.06 694.37,-6.16 703.28,-7.36 711.86,-8.66 720.06,-10.05 727.86,-11.53 735.23,-13.09 742.14,-14.73 748.56,-16.45 754.48,-18.23 759.87,-20.08 764.72,-21.99 769.01,-23.96 772.74,-25.97 775.89,-28.02 778.47,-30.11 780.47,-32.24 781.89,-34.39 782.74,-36.56 783.02,-38.75 782.75,-40.95 781.93,-43.16 780.58,-45.36 778.72,-47.56 776.37,-49.75 773.54,-51.92 770.26,-54.07 766.55,-56.2 762.44,-58.29 757.94,-60.35 753.09,-62.36 747.91,-64.33 742.43,-66.25 736.68,-68.12 730.67,-69.92 724.44,-71.66 718.01,-73.33 711.41,-74.92 704.66,-76.44 697.79,-77.88 690.8,-79.23 683.74,-80.5 676.6,-81.67 669.43,-82.75 662.22,-83.73 654.99,-84.6 647.77,-85.38 640.55,-86.04 633.36,-86.6 626.21,-87.05 619.1,-87.39 612.03,-87.61 605.03,-87.71 598.09,-87.7 591.22,-87.57 584.43,-87.33 577.72,-86.97 571.09,-86.49 564.55,-85.89 558.1,-85.18 551.75,-84.35 545.5,-83.41 539.35,-82.36 533.32,-81.2 527.41,-79.93 521.62,-78.56 515.96,-77.09 510.45,-75.52 505.08,-73.86 499.88,-72.12 494.85,-70.29 490,-68.38 485.35,-66.4 480.91,-64.35 476.7,-62.24 472.73,-60.07 469.02,-57.85 465.58,-55.59 462.44,-53.29 459.62,-50.97 457.12,-48.62 454.97,-46.25 453.19,-43.88 451.79,-41.5 450.8,-39.13 450.22,-36.78 450.08,-34.44 450.38,-32.13 451.15,-29.86 452.39,-27.62 454.11,-25.44 456.32,-23.31 459.03,-21.24 462.25,-19.24 465.96,-17.31 470.18,-15.47 474.89,-13.71 480.1,-12.03 485.79,-10.46 491.96,-8.98 498.58,-7.61 505.65,-6.34 513.14,-5.19 521.03,-4.15 529.3,-3.23 537.91,-2.43 546.85,-1.75 556.08,-1.19 565.56,-0.75 575.26,-0.44 585.14,-0.26 595.17,-0.2 605.3,-0.26 615.49,-0.45 625.71,-0.76 635.91,-1.18 646.05,-1.73 656.08,-2.4"/>
<text text-anchor="middle" x="611.03" y="-40.5" font-family="sans-serif" font-size="16.00">GestionEnviosContext</text>
</g>
<!-- GestionClientesContext&#45;&gt;GestionEnviosContext -->
<g id="edge4" class="edge">
<title>GestionClientesContext&#45;&gt;GestionEnviosContext</title>
<path fill="none" stroke="black" stroke-width="2" d="M611.03,-137.9C611.03,-121.94 611.03,-103.83 611.03,-87.88"/>
<text text-anchor="middle" x="645.53" y="-110.01" font-family="sans-serif" font-size="12.00">Partnership</text>
</g>
<!-- GestionAutorizacionAutenticacionContext -->
<g id="node6" class="node">
<title>GestionAutorizacionAutenticacionContext</title>
<polygon fill="none" stroke="black" stroke-width="2" points="397.53,-327.92 395.31,-325.07 393.86,-322.21 393.16,-319.38 393.23,-316.57 394.08,-313.8 395.71,-311.08 398.11,-308.42 401.28,-305.83 405.22,-303.31 409.92,-300.88 415.37,-298.55 421.55,-296.33 428.44,-294.21 436.04,-292.21 444.32,-290.33 453.25,-288.58 462.82,-286.96 472.98,-285.47 483.72,-284.12 495,-282.9 506.79,-281.83 519.05,-280.9 531.74,-280.1 544.82,-279.44 558.26,-278.92 572.02,-278.54 586.04,-278.28 600.29,-278.16 614.72,-278.16 629.29,-278.28 643.96,-278.51 658.67,-278.86 673.39,-279.32 688.06,-279.88 702.64,-280.54 717.1,-281.29 731.38,-282.13 745.44,-283.05 759.24,-284.05 772.75,-285.12 785.91,-286.26 798.7,-287.47 811.08,-288.74 823.02,-290.06 834.47,-291.44 845.41,-292.86 855.82,-294.34 865.66,-295.85 874.9,-297.41 883.54,-299.01 891.54,-300.64 898.89,-302.31 905.56,-304.01 911.56,-305.74 916.86,-307.51 921.46,-309.3 925.34,-311.12 928.5,-312.97 930.94,-314.84 932.66,-316.74 933.66,-318.66 933.93,-320.6 933.49,-322.57 932.34,-324.55 930.48,-326.54 927.93,-328.56 924.69,-330.58 920.79,-332.61 916.23,-334.65 911.02,-336.68 905.19,-338.72 898.75,-340.75 891.72,-342.77 884.13,-344.77 875.98,-346.74 867.3,-348.7 858.13,-350.61 848.47,-352.49 838.35,-354.32 827.8,-356.09 816.85,-357.8 805.52,-359.45 793.83,-361.02 781.83,-362.5 769.52,-363.89 756.95,-365.19 744.15,-366.38 731.14,-367.45 717.95,-368.41 704.62,-369.24 691.17,-369.94 677.64,-370.5 664.07,-370.91 650.47,-371.18 636.9,-371.3 623.37,-371.25 609.92,-371.06 596.59,-370.7 583.41,-370.17 570.41,-369.49 557.63,-368.64 545.1,-367.63 532.85,-366.47 520.92,-365.14 509.33,-363.67 498.13,-362.04 487.34,-360.27 477,-358.37 467.13,-356.33 457.76,-354.17 448.93,-351.9 440.65,-349.52 432.97,-347.05 425.89,-344.49 419.45,-341.85 413.68,-339.15 408.57,-336.39 404.17,-333.6 400.48,-330.77 397.53,-327.92"/>
<text text-anchor="middle" x="666.03" y="-319.24" font-family="sans-serif" font-size="16.00">GestionAutorizacionAutenticacionContext</text>
</g>
<!-- GestionAutorizacionAutenticacionContext&#45;&gt;GestionClientesContext -->
<g id="edge5" class="edge">
<title>GestionAutorizacionAutenticacionContext&#45;&gt;GestionClientesContext</title>
<path fill="none" stroke="black" stroke-width="2" d="M648.77,-278.36C642.1,-261.44 634.48,-242.15 627.84,-225.34"/>
<text text-anchor="middle" x="716.53" y="-247.32" font-family="sans-serif" font-size="12.00"> &#160;&#160;&#160;&#160;&#160;&#160;&#160;&#160;&#160;&#160;&#160;&#160;&#160;&#160;&#160;&#160;&#160;&#160;&#160;&#160;&#160;&#160;&#160;&#160;&#160;&#160;&#160;&#160;&#160;&#160;&#160;&#160;&#160;&#160;&#160;&#160;&#160;&#160;&#160;</text>
<polygon fill="white" stroke="transparent" points="608.84,-215.34 608.84,-234.34 624.84,-234.34 624.84,-215.34 608.84,-215.34"/>
<polyline fill="none" stroke="black" points="624.84,-215.34 624.84,-234.34 "/>
<text text-anchor="start" x="611.84" y="-221.74" font-family="sans-serif" font-size="12.00">D</text>
<polygon fill="white" stroke="transparent" points="624.84,-215.34 624.84,-234.34 646.84,-234.34 646.84,-215.34 624.84,-215.34"/>
<polygon fill="none" stroke="black" points="624.84,-215.34 624.84,-234.34 646.84,-234.34 646.84,-215.34 624.84,-215.34"/>
<text text-anchor="start" x="627.84" y="-221.74" font-family="sans-serif" font-size="12.00">CF</text>
<polygon fill="white" stroke="transparent" points="630.77,-268.36 630.77,-287.36 646.77,-287.36 646.77,-268.36 630.77,-268.36"/>
<polyline fill="none" stroke="black" points="646.77,-268.36 646.77,-287.36 "/>
<text text-anchor="start" x="633.77" y="-274.76" font-family="sans-serif" font-size="12.00">U</text>
<polygon fill="white" stroke="transparent" points="646.77,-268.36 646.77,-287.36 667.77,-287.36 667.77,-268.36 646.77,-268.36"/>
<polygon fill="none" stroke="black" points="646.77,-268.36 646.77,-287.36 667.77,-287.36 667.77,-268.36 646.77,-268.36"/>
<text text-anchor="start" x="649.77" y="-274.76" font-family="sans-serif" font-size="12.00">PL</text>
</g>
</g>
</svg>
